HIERARCHY
ROOT hip
{
	OFFSET 0.000000 0.000000 0.000000 
	CHANNELS 6 Xposition Yposition Zposition Xrotation Zrotation Yrotation
	JOINT abdomen
	{
		OFFSET 0.000000 3.402643 0.000000 
		CHANNELS 3 Xrotation Zrotation Yrotation
		JOINT chest
		{
			OFFSET 0.000000 8.438565 -0.680529 
			CHANNELS 3 Xrotation Zrotation Yrotation
			JOINT neck
			{
				OFFSET 0.000000 10.207942 -0.272212 
				CHANNELS 3 Xrotation Zrotation Yrotation
				JOINT head
				{
					OFFSET 0.000000 3.130431 0.000000 
					CHANNELS 3 Xrotation Zrotation Yrotation
					End Site
					{
						OFFSET 0.000000 3.130435 0.000000 
					}
				}
			}
			JOINT lCollar
			{
				OFFSET 3.470700 6.669187 -0.816635 
				CHANNELS 3 Yrotation Zrotation Xrotation
				JOINT lShldr
				{
					OFFSET 3.198488 0.000000 0.000000 
					CHANNELS 3 Zrotation Yrotation Xrotation
					JOINT lForeArm
					{
						OFFSET 10.139888 0.000000 0.000000 
						CHANNELS 3 Yrotation Zrotation Xrotation
						JOINT lHand
						{
							OFFSET 8.370511 0.000000 0.000000 
							CHANNELS 3 Zrotation Yrotation Xrotation
							End Site
							{
								OFFSET 4.083176 0.000000 0.000000 
							}
						}
					}
				}
			}
			JOINT rCollar
			{
				OFFSET -3.470700 6.669187 -0.816635 
				CHANNELS 3 Yrotation Zrotation Xrotation
				JOINT rShldr
				{
					OFFSET -3.198488 0.000000 0.000000 
					CHANNELS 3 Zrotation Yrotation Xrotation
					JOINT rForeArm
					{
						OFFSET -10.139888 0.000000 0.000000 
						CHANNELS 3 Yrotation Zrotation Xrotation
						JOINT rHand
						{
							OFFSET -8.370511 0.000000 0.000000 
							CHANNELS 3 Zrotation Yrotation Xrotation
							End Site
							{
								OFFSET -4.083176 0.000000 0.000000 
							}
						}
					}
				}
			}
		}
	}
	JOINT lThigh
	{
		OFFSET 5.308129 -1.633274 1.361059 
		CHANNELS 3 Xrotation Zrotation Yrotation
		JOINT lShin
		{
			OFFSET -2.041588 -20.007561 0.000000 
			CHANNELS 3 Xrotation Zrotation Yrotation
			JOINT lFoot
			{
				OFFSET 0.000000 -19.190928 -1.224953 
				CHANNELS 3 Xrotation Yrotation Zrotation
				End Site
				{
					OFFSET 0.000000 -2.449906 4.627600 
				}
			}
		}
	}
	JOINT rThigh
	{
		OFFSET -5.308129 -1.633274 1.361059 
		CHANNELS 3 Xrotation Zrotation Yrotation
		JOINT rShin
		{
			OFFSET 2.041588 -20.007561 0.000000 
			CHANNELS 3 Xrotation Zrotation Yrotation
			JOINT rFoot
			{
				OFFSET 0.000000 -19.190928 -1.224953 
				CHANNELS 3 Xrotation Yrotation Zrotation
				End Site
				{
					OFFSET 0.000000 -2.449906 4.627600 
				}
			}
		}
	}
}
MOTION
Frames: 6
Frame Time: 0.011111
2.245785 51.600597 17.280127 -3.313024 0.170112 -3.815037 42.515354 2.754543 -3.335474 -30.739618 7.703794 -1.699222 -16.823578 1.199345 2.029030 19.546864 -6.662172 3.327876 2.656661 -4.973740 1.830115 -70.576889 -12.171012 15.813326 -63.543846 9.446273 14.013404 8.524705 12.647240 -38.724010 -4.438679 -1.473473 2.444106 69.669701 8.477800 -0.033913 96.943199 -9.355222 38.937737 -8.534408 -12.637552 23.861185 -2.172535 2.816246 -3.088195 28.933449 -5.391434 -4.715060 -19.436327 -2.057754 -3.467381 -9.703920 -5.330460 0.724058 42.194752 4.472480 6.312437 -28.227411 -3.012601 0.404850 
2.297292 51.680313 17.272156 -3.399473 0.136562 -4.116914 42.650288 2.616758 -3.373979 -30.898960 7.798630 -1.717615 -16.820873 1.103261 2.149860 19.744894 -6.499282 3.566062 2.656661 -4.973740 1.830115 -70.685165 -12.178551 15.367360 -63.288723 9.442128 13.891623 8.524705 12.647240 -39.124401 -4.438679 -1.473473 2.444106 68.832146 8.456161 1.080121 97.552856 -9.556427 39.244194 -8.534408 -12.637552 23.138531 -1.959675 2.769367 -3.149643 28.863567 -5.391338 -4.718627 -19.543226 -1.807603 -3.356818 -9.534035 -5.191692 0.294980 42.440571 4.453070 6.365276 -28.273781 -2.621247 0.584179 
2.338375 51.711895 17.243643 -3.387955 -0.169113 -4.499866 42.705879 2.591650 -3.105973 -30.968081 7.797813 -1.657848 -17.145582 1.161923 2.031072 20.269905 -6.526760 3.303230 2.656661 -4.973740 1.830115 -70.712524 -12.080310 15.161128 -63.372791 9.441006 13.930205 8.524705 12.647240 -39.202526 -4.438679 -1.473473 2.444106 68.109573 8.810107 2.036147 97.962234 -9.682536 39.436096 -8.534408 -12.637552 22.298685 -1.988906 3.022996 -3.196171 28.802982 -5.400784 -4.696198 -19.630381 -1.592717 -3.288370 -9.464973 -4.703383 0.042138 42.658611 4.433276 6.367567 -28.340038 -2.656016 0.558119 
2.370261 51.689514 17.181404 -3.307792 -0.395903 -4.975749 42.668198 2.406509 -2.775097 -31.094631 7.695816 -1.550147 -16.568016 1.162483 2.110778 19.582674 -6.112750 3.575763 2.656661 -4.973740 1.830115 -70.452942 -11.890288 15.212044 -63.524078 9.449308 14.000852 8.524705 12.647240 -39.046280 -4.438679 -1.473473 2.444106 67.674126 9.209971 2.890934 98.302963 -9.782159 39.612705 -8.534408 -12.637552 21.058451 -2.157202 3.250787 -3.070595 28.853636 -5.391294 -4.717743 -19.704222 -1.401125 -3.199238 -9.396706 -4.215519 -0.249194 42.944294 4.413736 6.404264 -28.432777 -3.256279 0.239730 
2.405212 51.670815 17.136641 -3.247109 -0.435775 -5.423540 42.598732 2.052068 -2.552188 -30.993919 7.559814 -1.414425 -16.418249 1.148572 2.256938 19.188427 -5.617036 3.958304 2.656661 -4.973740 1.830115 -70.115570 -12.199967 15.348101 -63.404911 9.441863 13.942440 8.524705 12.647240 -39.007214 -4.438679 -1.473473 2.444106 67.309647 9.890100 3.732794 98.580841 -9.862523 39.744209 -8.534408 -12.637552 20.169783 -2.320924 3.267346 -2.807365 29.033926 -5.381063 -4.741564 -19.888905 -1.340135 -3.167684 -9.272141 -3.972473 -0.650647 43.269184 4.394261 6.444305 -28.282452 -3.822617 -0.012528 
2.443230 51.622673 17.109968 -3.245837 -0.106693 -5.657368 42.483150 1.571627 -2.827265 -30.755779 7.456400 -1.386159 -16.593416 1.343863 2.270767 19.320372 -5.555775 4.072470 2.656661 -4.973740 1.830115 -69.869629 -12.654258 15.098265 -63.117458 9.435613 13.808763 8.524705 12.647240 -39.134167 -4.438679 -1.473473 2.444106 66.980583 10.715210 4.635259 98.765938 -9.915405 39.829376 -8.534408 -12.637552 19.134624 -2.336646 2.882737 -2.616218 29.206091 -5.357419 -4.770171 -20.060463 -1.377078 -3.205196 -9.226443 -4.218029 -1.192799 43.625000 4.355082 6.479962 -28.101465 -3.875064 0.016075 
